<svg xmlns="http://www.w3.org/2000/svg" viewBox="0 0 155.209 69.061">
  <path class="st0" d="M1.188 61.979l.001-5.14c1.213-.207 1.819-.308 3.033-.507 1.785-.292 1.726-.208 1.727-2.349l.025-36.911-.179.009A587.866 587.866 0 01.359 9.154L0 4.15A1513.624 1513.624 0 0121.01.215a716.43 716.43 0 005.253 7.531l-.088 45.542c2.003 2.866 3.005 4.287 5.009 7.114l-.009 4.703a371.761 371.761 0 00-24.582 3.957 623.12 623.12 0 01-5.405-7.083zm23.843-4.274l.005-2.857c-.717.086-1.076.129-1.793.218-2.51.31-2.986-.171-2.981-3.059l.087-50.209A847.114 847.114 0 001.256 5.437l.239 3.106 2.272-.056c3.469-.085 3.348 1.272 3.347 3.407L7.081 53.81c-.002 2.989-.48 3.628-2.978 4.049-.714.12-1.071.181-1.784.304l-.001 3.03a421.24 421.24 0 0122.713-3.488zM8.374 7.029a675.61 675.61 0 019.456-2.108l-.003 2.076c-3.734.064-5.601.098-9.334.172-.059-.07-.059-.141-.119-.14zm1.148 48.114c3.313-.499 4.971-.733 8.29-1.17.118.676.237 1.213.415 1.742-3.653.494-5.478.761-9.124 1.331a14.74 14.74 0 00.419-1.903zM9.269 8.851c3.421-.083 5.132-.121 8.555-.194l-.003 1.799c-3.302.084-4.953.129-8.255.225-.058-.704-.118-1.268-.297-1.83zm.356 3.525c3.277-.11 4.916-.162 8.194-.259l-.003 1.799c-3.278.111-4.917.171-8.193.297l.002-1.837zm-.004 3.605c3.276-.142 4.914-.209 8.192-.334l-.003 1.799c-3.277.14-4.916.214-8.191.373l.002-1.838zm-.004 3.534c3.275-.174 4.913-.255 8.19-.408l-.003 1.799a969.33 969.33 0 00-8.189.447l.002-1.838zm-.003 3.604c3.274-.206 4.912-.303 8.188-.484l-.003 1.799c-3.276.195-4.914.3-8.187.522l.002-1.837zm-.004 3.534c3.273-.237 4.91-.349 8.186-.558l-.003 1.799c-3.276.223-4.913.342-8.185.596l.002-1.837zm-.003 3.533c3.272-.269 4.909-.395 8.184-.632l-.003 1.799c-3.275.251-4.912.385-8.183.67l.002-1.837zm-.004 3.605c3.271-.301 4.908-.442 8.182-.707l-.003 1.799c-3.274.279-4.911.428-8.181.745l.002-1.837zm-.004 3.533c3.27-.332 4.906-.489 8.18-.781l-.003 1.799c-3.274.307-4.91.471-8.179.819l.002-1.837zm-.003 3.534c3.269-.364 4.905-.535 8.179-.855l-.003 1.799c-3.273.334-4.909.513-8.178.893l.002-1.837zm-.004 3.605c3.268-.396 4.904-.582 8.177-.93l-.003 1.799c-3.273.363-4.908.556-8.176.969l.002-1.838zm-.004 3.533c3.267-.427 4.902-.628 8.175-1.004l-.003 1.799c-3.272.39-4.907.599-8.174 1.043l.002-1.838zm-.003 3.534c3.266-.459 4.901-.675 8.173-1.078l-.003 1.799c-3.272.418-4.906.641-8.172 1.117l.002-1.838zM34.66 57.139l.01-4.739c1.222-.116 1.832-.172 3.054-.28 1.797-.158 1.737-.084 1.741-2.069l.068-34.223-.18.005A907.249 907.249 0 0133.92 8.43l-.35-4.61A2820.312 2820.312 0 0154.588.202c2.103 2.881 3.155 4.313 5.259 7.169l-.051 43.344 5.037 7.17-.004 4.507c-8.26.286-16.511.85-24.734 1.69a1435.984 1435.984 0 01-5.435-6.943zm23.991-2.303l.003-2.715c-.72.031-1.081.047-1.801.081-2.521.118-3.001-.369-2.996-3.096l.071-47.408a1524.412 1524.412 0 00-19.103 3.316l.234 2.866 2.275-.031c3.472-.047 3.35 1.212 3.346 3.195l-.077 38.918c-.005 2.775-.487 3.337-3.002 3.565-.719.065-1.078.099-1.797.167l-.006 2.797a420.666 420.666 0 0122.853-1.655zM41.946 6.537a1173.42 1173.42 0 019.463-1.905l-.003 1.953c-3.736.028-5.604.044-9.34.082-.06-.065-.06-.13-.12-.13zm1.112 44.817c3.333-.253 5-.364 8.336-.555.119.644.238 1.158.417 1.668-3.672.214-5.508.341-9.177.631.182-.541.303-1.077.424-1.744zm-.217-43.113c3.425-.042 5.137-.06 8.563-.092l-.003 1.693c-3.306.037-4.959.058-8.264.107-.058-.658-.117-1.184-.296-1.708zm.353 3.286c3.281-.056 4.922-.08 8.204-.123l-.003 1.693c-3.282.049-4.923.077-8.205.141l.004-1.711zm-.006 3.357c3.282-.072 4.923-.104 8.205-.159l-.003 1.693c-3.283.061-4.924.096-8.206.177l.004-1.711zm-.007 3.291c3.282-.088 4.923-.127 8.206-.194l-.003 1.693c-3.283.073-4.925.116-8.207.212l.004-1.711zm-.006 3.357c3.282-.104 4.924-.15 8.207-.229l-.003 1.693c-3.284.086-4.925.135-8.208.248l.004-1.712zm-.006 3.291a774.73 774.73 0 018.208-.264l-.003 1.693a725.09 725.09 0 00-8.209.283l.004-1.712zm-.007 3.291c3.283-.136 4.925-.196 8.209-.3l-.003 1.693c-3.285.11-4.927.173-8.21.318l.004-1.711zm-.006 3.357c3.283-.152 4.925-.219 8.21-.335l-.003 1.693c-3.285.122-4.928.193-8.211.354l.004-1.712zm-.006 3.291c3.284-.168 4.926-.242 8.211-.37l-.003 1.693c-3.286.134-4.928.212-8.212.389l.004-1.712zm-.007 3.291c3.284-.184 4.926-.265 8.212-.405l-.003 1.693c-3.286.147-4.929.231-8.213.424l.004-1.712zm-.006 3.357c3.284-.2 4.927-.289 8.213-.441l-.003 1.693c-3.287.159-4.93.251-8.214.459l.004-1.711zm-.006 3.291c3.284-.216 4.928-.312 8.215-.476l-.003 1.693c-3.287.171-4.93.27-8.215.494l.003-1.711zm-.007 3.291c3.285-.232 4.928-.334 8.216-.511l-.003 1.693c-3.288.183-4.931.289-8.216.53l.003-1.712zM75.289 56.789a2927.091 2927.091 0 00-4.804-6.366c-1.681-2.285-2.64-5.158-2.638-8.179.004-5.271 3.726-9.508 8.406-9.517 1.02-.002 2.04.191 2.94.578a3400.565 3400.565 0 00-2.819-3.786v-.449c-.36-.256-.72-.64-1.08-1.024-1.919-2.587-2.878-3.877-4.795-6.459-1.378-1.596-2.149-4.024-2.094-6.604C68.586 6.568 76.686.111 85.056.33c6.003.157 11.376 2.254 14.256 6.29 1.848 2.526 2.772 3.795 4.621 6.35 1.741 2.305 2.704 5.334 2.71 8.471.008 4.704-1.962 9.076-5.195 11.629a934.152 934.152 0 013.065 4.282c2.043 2.695 3.091 6.265 3.135 10.152.114 9.973-8.916 15.992-18.17 15.439-6.075-.364-11.245-2.257-14.189-6.154zm26.289-16.116c-.048-5.473-3.623-12.048-9.492-13.146v-.451c2.578.044 8.627-4.347 8.495-12.271-.14-8.395-7.735-12.859-15.525-13.126-7.691-.264-15.222 5.558-15.393 13.298-.113 5.09 2.874 7.813 6.111 7.807 3.357-.006 6.354-2.815 6.353-6.602-.001-4.043-2.997-6.681-6.172-6.678-.898.001-1.737.194-2.097.387.6-1.798 2.636-3.854 6.109-3.852 4.132.003 7.429 4.255 7.432 9.591.005 6.943-3.591 10.617-9.768 10.616v2.887c6.354-.117 10.882 4.935 10.745 11.2-.163 7.415-4.316 10.579-7.981 10.556-1.442-.009-2.584-.329-3.124-.907 3.124-.323 6.186-3.686 6.184-7.924s-3.183-7.993-7.204-7.985c-3.96.008-7.21 3.72-7.145 8.148.119 8.013 7.968 12.997 15.556 12.824 7.974-.18 16.995-5.371 16.916-14.372zm-29.827-.861c3.433-.035 5.15-.04 8.584-.023.24.515.36 1.029.42 1.67a461.378 461.378 0 00-9.485.027c.06-.642.24-1.157.481-1.674zm-.422 3.151c3.77-.044 5.656-.05 9.426-.028a4.154 4.154 0 01-.54 1.665 430.093 430.093 0 00-8.347.025 7.537 7.537 0 01-.539-1.662zm.431-26.84c0-.321.06-.578.06-.899 3.14-.012 4.71-.014 7.85-.01.06.321.06.642.06.898s0 .513-.06.77c-3.14-.005-4.711-.003-7.851.011.001-.257-.059-.514-.059-.77zm4.016-4.374c1.258-.001 2.396.641 3.115 1.668-2.564-.002-3.847 0-6.411.007.719-1.093 1.798-1.673 3.296-1.675zm-3.178 7.002c2.517-.01 3.776-.012 6.293-.01-.659.962-1.678 1.603-2.877 1.668l-.54.001c-1.138-.061-2.217-.699-2.876-1.659zm3.414 18.211a4.562 4.562 0 013.241 1.347 500.205 500.205 0 00-6.482.017 4.583 4.583 0 013.241-1.364zm-3.123 9.13c2.498-.024 3.747-.028 6.246-.02-.841.831-1.922 1.344-3.123 1.348-1.202.003-2.283-.502-3.123-1.328zm14.228-5.781c-.001-.9-.061-1.736-.182-2.51-1.381-.921-2.881-1.516-4.141-1.654 1.705 2.325 2.558 3.491 4.265 5.835.059-.514.059-1.285.058-1.671zm-1.096-26.36a6.971 6.971 0 00-1.258-.134c-.3-.001-.659-.003-.959.06l2.339 3.095c.059-1.285-.002-2.571-.122-3.021zm-1.622-9.319c2.814.004 5.628-.058 8.744 1.697-2.659-.011-3.988-.016-6.647-.022-.659-.645-1.318-1.224-2.097-1.675zm2.828 19.996c2.302.024 3.453.039 5.755.078-2.456 1.442-5.154 1.726-7.673 1.703.599-.508 1.379-1.207 1.918-1.781zm.317 25.656c2.475.054 3.712.089 6.186.177-3.18 1.823-6.244 1.49-8.046 1.457.72-.437 1.32-1.003 1.86-1.634zm-.734-20.582c2.759.033 5.338.074 8.159 1.82a588.886 588.886 0 00-6.778-.13c-.42-.586-.9-1.106-1.381-1.69zm.945-21.721c3.042.011 4.563.019 7.605.037.48.52.96 1.105 1.32 1.69-3.21-.026-4.815-.036-8.026-.051-.24-.58-.54-1.16-.899-1.676zm1.328 13.323c2.901.031 4.352.051 7.253.102a10.58 10.58 0 01-1.257 1.658 804.682 804.682 0 00-6.774-.096c.299-.511.539-1.023.778-1.664zm.561 25.619c3.026.075 4.539.124 7.564.245-.36.568-.839 1.13-1.319 1.629-2.833-.11-4.25-.154-7.085-.221.3-.508.6-1.079.84-1.653zm-.39-35.59c3.283.019 4.924.032 8.207.064.18.519.361 1.104.422 1.687a1496.97 1496.97 0 00-8.207-.076c-.121-.579-.241-1.159-.422-1.675zm.018 21.812c3.048.051 4.571.086 7.618.171.421.529.781 1.122 1.082 1.714a550.254 550.254 0 00-7.919-.198c-.24-.583-.48-1.103-.781-1.687zm.527-15.18c3.164.03 4.746.05 7.91.1-.119.58-.298 1.16-.477 1.675a934.297 934.297 0 00-7.671-.104c.119-.513.179-1.028.238-1.671zm.118-2.316c0-.322-.001-.644-.061-.966 3.283.026 4.925.043 8.208.086.001.583-.058 1.1-.118 1.682-3.211-.047-4.817-.066-8.029-.094v-.708zm.684 27.822c3.218.079 4.826.131 8.042.259a13.31 13.31 0 01-.478 1.665c-3.168-.128-4.753-.18-7.923-.259.18-.511.3-1.087.359-1.665zm-.126-6.828c3.24.067 4.86.111 8.099.219.121.522.242 1.109.302 1.695a497.02 497.02 0 00-8.1-.233 13.86 13.86 0 00-.301-1.681zm.363 3.678v-.257c3.265.075 4.897.125 8.161.247v.194c.001.518.001 1.037-.058 1.488a453.462 453.462 0 00-8.161-.256c.059-.45.059-.965.058-1.416zM118.811 58.161a698.863 698.863 0 00-4.806-7.125c-1.743-2.58-2.587-5.523-2.593-8.548-.012-6.115 2.438-10.263 7.522-12.995a781.03 781.03 0 00-3.423-4.934c-1.741-2.517-2.63-5.416-2.592-8.798.105-9.42 8.729-16.033 17.927-15.752 6.091.186 11.797 2.275 14.972 6.789a530.513 530.513 0 015.447 8.291c1.555 2.653 2.391 5.964 2.392 9.508.001 5.062-1.906 9.018-5.722 11.759.06.077.119.155.119.226a510.582 510.582 0 014.057 6.475c2.086 3.359 3.037 7.217 3.097 11.371.153 10.659-10.113 15.01-19.28 13.276-6.3-1.192-13.203-3.977-17.117-9.543zm30.383-11.826c-.214-7.016-4.181-13.55-10.939-16.373 5.912-2.474 9.156-6.726 9.366-12.897.316-9.314-8.32-15.314-16.772-15.626-8.537-.315-16.575 5.542-16.672 14.352-.076 6.909 3.495 10.402 9.366 13.282-6.317 1.73-11.155 6.636-10.871 13.494.395 9.532 9.815 15.222 18.465 16.146 7.871.84 18.352-2.671 18.057-12.378zm-34.007-3.602c-.001-.595.058-1.12.116-1.645 3.307.218 4.96.339 8.264.605-.059.599-.117 1.198-.116 1.735a457.166 457.166 0 00-8.264-.628v-.067zm.183 1.931c3.211.23 4.816.358 8.025.637v.134c.001.537.002 1.074.063 1.616-3.04-.275-4.562-.402-7.605-.631-.241-.548-.362-1.152-.483-1.756zm.885-7.024c3.091.191 4.636.296 7.724.526-.059.533-.177 1.128-.236 1.728a492.645 492.645 0 00-8.144-.573c.179-.585.357-1.169.656-1.681zm.435-21.784c-.001-.265-.001-.464.059-.662 3.018.076 4.526.118 7.543.209l.183 1.754c-3.088-.104-4.633-.152-7.722-.239-.061-.333-.062-.731-.063-1.062zm.065 32.423c2.756.221 4.133.341 6.886.601.061.61.182 1.225.303 1.775a411.582 411.582 0 00-5.747-.531c-.541-.578-1.021-1.148-1.442-1.845zm.646-36.454c2.706.054 4.059.083 6.765.147l.004 1.747c-2.897-.078-4.346-.113-7.244-.179.118-.594.236-1.189.475-1.715zm-.466 6.756c3.138.097 4.706.151 7.842.268.061.608.182 1.218.363 1.764a932.164 932.164 0 00-7.662-.289 7.298 7.298 0 01-.543-1.743zm2.247 15.718c2.275.137 3.413.211 5.687.367l-.535 1.711c-2.801-.2-4.202-.292-7.005-.462.538-.631 1.136-1.126 1.853-1.616zm.187-25.897c2.035.03 3.053.046 5.088.08-.118.603-.177 1.14-.236 1.744-2.442-.049-3.663-.072-6.106-.114.358-.593.777-1.185 1.254-1.71zm-.93 13.685c2.85.109 4.275.168 7.123.296.121.612.302 1.16.482 1.776a819.199 819.199 0 00-5.866-.27 12.541 12.541 0 01-1.739-1.802zm2.097 30.113c1.581.149 2.371.228 3.951.391.24.63.601 1.476.961 2.053-2.095-.632-3.114-1.206-4.912-2.444zm4.931-47.34c-.238.537-.536 1.341-.655 1.945l-3.531-.046c1.316-.852 2.571-1.375 4.186-1.899zm1.131 26.416c-.358.45-.656.97-.955 1.557-1.364-.09-2.047-.133-3.411-.217 1.256-.526 2.691-.975 4.366-1.34zm-3.602-5.586c1.484.073 2.227.111 3.711.189.241.688.541 1.313.781 1.801a37.21 37.21 0 01-4.492-1.99zm2.912 19.971c-.015-7.687 1.114-11.305 4.459-13.794 3.173 1.718 5.811 7.325 5.823 14.775.012 6.968-2.133 9.157-5.061 8.798-3.228-.396-5.207-3.035-5.221-9.779zm.712-33.09c-.011-5.538 1.36-8.567 4.232-8.542 2.873.025 4.255 3.136 4.265 8.779.011 6.125-.638 11.675-3.503 14.368-2.815-2.081-4.982-8.864-4.994-14.605zm8.316 33.933c-.003-1.788-.126-3.384-.427-4.924-1.908 2.15-2.56 5.357-2.548 11.505l.002.888c1.97-.308 2.981-2.655 2.973-7.469zm-1.075-33.527c-.716 1.214-1.19 3.318-1.184 6.602a22.2 22.2 0 00.184 2.746c.654-2.225 1.007-5.3 1-9.348zm.87 18.657c1.974.628 3.17 1.206 4.963 2.263a628.54 628.54 0 00-3.884-.322c-.36-.649-.719-1.364-1.079-1.941zm.888-5.238c1.172.074 1.757.111 2.929.189-1.075.484-2.329 1.023-3.704 1.414.298-.463.596-.994.775-1.603zm1.01-3.458c2.535.14 3.802.214 6.336.37-.477.602-1.074 1.125-1.79 1.708a839.973 839.973 0 00-5.021-.31c.178-.611.357-1.153.475-1.768zm-.388-17.961c1.737.642 2.934 1.214 4.132 2.072l-3.411-.059a19.039 19.039 0 00-.721-2.013zm.349 30.595c2.462.211 3.692.323 6.152.556.717.629 1.315 1.251 1.793 2.005-2.912-.298-4.369-.44-7.285-.705-.24-.646-.42-1.283-.66-1.856zm1.045 18.571c1.647.219 2.471.332 4.117.566-1.609.82-3.696 1.152-5.068 1.242.357-.435.714-1.217.951-1.808zm-.354-34.766c3.014.142 4.521.218 7.533.378a15.026 15.026 0 01-.655 1.796c-2.869-.165-4.303-.243-7.174-.391.119-.546.178-1.166.296-1.783zm.043-10.651c2.01.043 3.015.065 5.025.111.479.572.899 1.214 1.259 1.857-2.416-.068-3.625-.101-6.042-.163a18.601 18.601 0 00-.242-1.805zm.251 7.135c3.014.117 4.521.179 7.534.311.06.285.06.497.061.779 0 .353-.059.703-.059 1.056-3.06-.149-4.591-.219-7.653-.351.059-.62.118-1.172.117-1.795zm.114-2.973l-.001-.554c2.704.082 4.056.125 6.759.216.18.57.36 1.211.481 1.85a1477.13 1477.13 0 00-7.296-.268c.059-.413.058-.828.057-1.244zm.102 26.458c3.154.305 4.73.467 7.88.812.299.598.478 1.255.658 1.913a491.968 491.968 0 00-8.117-.882c-.12-.636-.301-1.208-.421-1.843zm.734 11.17c2.722.341 4.082.522 6.8.901-.357.656-.833 1.153-1.31 1.648-2.337-.331-3.506-.49-5.846-.792l.356-1.757zm-.071-7.43c3.273.35 4.908.536 8.175.933.06.645.061 1.212.061 1.85-3.219-.408-4.83-.6-8.055-.96l-.181-1.823zm.245 3.774c3.152.368 4.727.563 7.874.979-.059.63-.237 1.244-.416 1.786a432.314 432.314 0 00-7.516-.967c.06-.34.058-1.52.058-1.798z"/>
</svg>
